<svg width="180" height="180" viewBox="0 0 180 180" fill="none" xmlns="http://www.w3.org/2000/svg">
<rect width="180" height="180" fill="#4F8B5D"/>
<path d="M100.68 81.3C99.6 79.22 98.1 77.66 96.18 76.62C94.26 75.54 92.04 75 89.52 75C86.76 75 84.3 75.62 82.14 76.86C79.98 78.1 78.28 79.86 77.04 82.14C75.84 84.42 75.24 87.06 75.24 90.06C75.24 93.06 75.84 95.72 77.04 98.04C78.28 100.32 79.98 102.08 82.14 103.32C84.3 104.56 86.76 105.18 89.52 105.18C93.24 105.18 96.26 104.14 98.58 102.06C100.9 99.98 102.32 97.16 102.84 93.6H87.18V88.14H110.16V93.48C109.72 96.72 108.56 99.7 106.68 102.42C104.84 105.14 102.42 107.32 99.42 108.96C96.46 110.56 93.16 111.36 89.52 111.36C85.6 111.36 82.02 110.46 78.78 108.66C75.54 106.82 72.96 104.28 71.04 101.04C69.16 97.8 68.22 94.14 68.22 90.06C68.22 85.98 69.16 82.32 71.04 79.08C72.96 75.84 75.54 73.32 78.78 71.52C82.06 69.68 85.64 68.76 89.52 68.76C93.96 68.76 97.9 69.86 101.34 72.06C104.82 74.22 107.34 77.3 108.9 81.3H100.68Z" fill="white"/>
</svg>
