<svg width="32" height="32" viewBox="0 0 32 32" fill="none" xmlns="http://www.w3.org/2000/svg">
<g clip-path="url(#clip0_238_133)">
<rect width="32" height="32" fill="#4F8B5D"/>
<path d="M18.67 13.575C18.4 13.055 18.025 12.665 17.545 12.405C17.065 12.135 16.51 12 15.88 12C15.19 12 14.575 12.155 14.035 12.465C13.495 12.775 13.07 13.215 12.76 13.785C12.46 14.355 12.31 15.015 12.31 15.765C12.31 16.515 12.46 17.18 12.76 17.76C13.07 18.33 13.495 18.77 14.035 19.08C14.575 19.39 15.19 19.545 15.88 19.545C16.81 19.545 17.565 19.285 18.145 18.765C18.725 18.245 19.08 17.54 19.21 16.65H15.295V15.285H21.04V16.62C20.93 17.43 20.64 18.175 20.17 18.855C19.71 19.535 19.105 20.08 18.355 20.49C17.615 20.89 16.79 21.09 15.88 21.09C14.9 21.09 14.005 20.865 13.195 20.415C12.385 19.955 11.74 19.32 11.26 18.51C10.79 17.7 10.555 16.785 10.555 15.765C10.555 14.745 10.79 13.83 11.26 13.02C11.74 12.21 12.385 11.58 13.195 11.13C14.015 10.67 14.91 10.44 15.88 10.44C16.99 10.44 17.975 10.715 18.835 11.265C19.705 11.805 20.335 12.575 20.725 13.575H18.67Z" fill="white"/>
</g>
<defs>
<clipPath id="clip0_238_133">
<rect width="32" height="32" fill="white"/>
</clipPath>
</defs>
</svg>
